<svg preserveAspectRatio="none" width="100%" height="100%" overflow="visible" style="display: block;" viewBox="0 0 118 29.5905" fill="none" xmlns="http://www.w3.org/2000/svg">
<g id="Vector">
<path d="M106.207 28.5803C104.634 28.5803 103.139 28.272 101.721 27.6554C100.302 27.0387 99.0538 26.1908 97.9747 25.1117C96.8955 24.0326 96.0477 22.7839 95.431 21.3656C94.8144 19.9474 94.5061 18.452 94.5061 16.8796C94.5061 15.2763 94.8144 13.7502 95.431 12.3011C96.0477 10.852 96.8955 9.58786 97.9747 8.50874C99.0538 7.42962 100.302 6.59716 101.721 6.01136C103.139 5.39472 104.634 5.0864 106.207 5.0864C107.81 5.0864 109.336 5.39472 110.785 6.01136C112.234 6.59716 113.499 7.42962 114.578 8.50874C115.657 9.58786 116.489 10.852 117.075 12.3011C117.692 13.7502 118 15.2763 118 16.8796C118 18.452 117.692 19.9474 117.075 21.3656C116.489 22.7839 115.657 24.0326 114.578 25.1117C113.499 26.1908 112.234 27.0387 110.785 27.6554C109.336 28.272 107.81 28.5803 106.207 28.5803ZM106.207 9.20246C104.141 9.20246 102.368 9.94242 100.888 11.4224C100.179 12.1315 99.6242 12.9639 99.2234 13.9197C98.8225 14.8755 98.6221 15.8621 98.6221 16.8796C98.6221 17.8971 98.8225 18.8683 99.2234 19.7932C99.6242 20.7182 100.179 21.5352 100.888 22.2444C101.597 22.9535 102.399 23.5085 103.293 23.9093C104.218 24.3101 105.189 24.5105 106.207 24.5105C107.224 24.5105 108.211 24.3101 109.167 23.9093C110.122 23.5085 110.939 22.9535 111.618 22.2444C112.296 21.5352 112.836 20.7182 113.236 19.7932C113.637 18.8683 113.838 17.8971 113.838 16.8796C113.838 15.8621 113.637 14.8755 113.236 13.9197C112.836 12.9639 112.296 12.1315 111.618 11.4224C110.939 10.7132 110.122 10.1737 109.167 9.80368C108.242 9.40286 107.255 9.20246 106.207 9.20246Z" fill="var(--fill-0, #27272A)"/>
<path d="M86.2206 29.1141C85.8433 29.0475 85.5913 28.6877 85.6579 28.3104L85.7454 27.814C85.8578 27.1767 85.0816 26.7084 84.5223 27.0338C83.7725 27.47 82.9758 27.8135 82.1322 28.0645C80.7088 28.5022 79.2835 28.5953 77.8564 28.3437C76.2472 28.0599 74.795 27.5064 73.5 26.6833C72.2104 25.8297 71.1458 24.7654 70.3061 23.4902C69.4362 22.2098 68.8207 20.8176 68.4597 19.3138C68.1344 17.785 68.111 16.2312 68.3894 14.6523C68.6678 13.0734 69.2186 11.6364 70.0418 10.3414C70.9007 9.02142 71.9578 7.90857 73.2133 7.00287C74.4384 6.09181 75.8002 5.47097 77.2986 5.14035C78.8024 4.77936 80.359 4.74074 81.9682 5.0245C83.5471 5.3029 84.918 5.87335 86.0808 6.73585C86.7157 7.1976 87.2783 7.71751 87.7685 8.29557C88.1949 8.79833 89.1288 8.62579 89.2433 7.97658L90.5487 0.573372C90.6152 0.196062 90.975 -0.0558747 91.3523 0.0106551L93.9939 0.476445C94.3712 0.542975 94.6232 0.902778 94.5566 1.28009L89.6659 29.0171C89.5993 29.3945 89.2395 29.6464 88.8622 29.5799L86.2206 29.1141ZM81.2374 9.16911C80.2354 8.99244 79.2442 9.02115 78.2637 9.25526C77.2885 9.459 76.4054 9.85116 75.6142 10.4317C74.8231 11.0123 74.1472 11.7384 73.5865 12.6101C73.0311 13.4514 72.6651 14.3731 72.4885 15.3751C72.1297 17.4094 72.5453 19.3142 73.735 21.0893C74.2799 21.9055 74.9729 22.5912 75.8143 23.1466C76.6556 23.7019 77.5772 24.0679 78.5792 24.2446C79.5812 24.4213 80.5725 24.3926 81.553 24.1584C82.5638 23.9297 83.4648 23.525 84.256 22.9445C85.9811 21.6833 87.023 20.0355 87.3817 18.0011C87.5584 16.9991 87.5297 16.0079 87.2956 15.0274C87.0669 14.0165 86.68 13.103 86.1352 12.2869C85.5903 11.4707 84.8794 10.7975 84.0024 10.2671C83.1611 9.7118 82.2394 9.34579 81.2374 9.16911Z" fill="var(--fill-0, #27272A)"/>
<path d="M47.8665 18.5908C47.4834 18.5908 47.1673 18.9044 47.2465 19.2793C47.3579 19.8057 47.5954 20.347 47.959 20.9032C48.514 21.7048 49.1461 22.3831 49.8552 22.9381C51.1501 23.9555 52.6609 24.4643 54.3875 24.4643C56.9356 24.4643 59.0451 23.321 60.7159 21.0346C60.9351 20.7345 61.3457 20.6363 61.6654 20.8256L63.9994 22.2076C64.3337 22.4055 64.4416 22.8405 64.2228 23.1615C63.094 24.8177 61.7425 26.1152 60.1685 27.0541C58.411 28.1024 56.4841 28.6266 54.3875 28.6266C52.8151 28.6266 51.3197 28.3337 49.9014 27.7479C48.4832 27.1312 47.2345 26.2833 46.1554 25.2042C45.0762 24.1251 44.2284 22.8764 43.6117 21.4581C43.0259 20.0399 42.733 18.5445 42.733 16.9721C42.733 15.3997 43.0259 13.9043 43.6117 12.4861C44.2284 11.037 45.0762 9.77285 46.1554 8.69373C47.2036 7.61461 48.4369 6.78215 49.8552 6.19635C51.3043 5.61054 52.8151 5.31764 54.3875 5.31764C55.9599 5.31764 57.4553 5.61054 58.8735 6.19635C60.3226 6.78215 61.5713 7.61461 62.6196 8.69373C64.9012 11.037 66.0419 13.7502 66.0419 16.8334C66.0419 17.2076 66.0209 17.5959 65.9789 17.9982C65.9431 18.3397 65.6492 18.5908 65.3058 18.5908H47.8665ZM54.3875 9.10996C53.1234 9.10996 51.9363 9.38745 50.8264 9.94242C49.7164 10.4974 48.8223 11.2374 48.144 12.1623C47.6452 12.8511 47.3386 13.5765 47.224 14.3385C47.1671 14.7174 47.4834 15.0297 47.8665 15.0297H60.9084C61.2916 15.0297 61.6081 14.7172 61.5485 14.3387C61.4286 13.5767 61.1073 12.8512 60.5847 12.1623C59.9372 11.2374 59.0585 10.4974 57.9486 9.94242C56.8386 9.38745 55.6516 9.10996 54.3875 9.10996Z" fill="var(--fill-0, #27272A)"/>
<path d="M22.9389 18.5908C22.5558 18.5908 22.2397 18.9044 22.319 19.2793C22.4303 19.8057 22.6678 20.347 23.0314 20.9032C23.5864 21.7048 24.2185 22.3831 24.9276 22.9381C26.2225 23.9555 27.7333 24.4643 29.4599 24.4643C32.008 24.4643 34.1175 23.321 35.7883 21.0346C36.0075 20.7345 36.4181 20.6363 36.7379 20.8256L39.0719 22.2076C39.4061 22.4055 39.514 22.8405 39.2952 23.1615C38.1664 24.8177 36.8149 26.1152 35.2409 27.0541C33.4835 28.1024 31.5565 28.6266 29.4599 28.6266C27.8875 28.6266 26.3921 28.3337 24.9739 27.7479C23.5556 27.1312 22.3069 26.2833 21.2278 25.2042C20.1487 24.1251 19.3008 22.8764 18.6841 21.4581C18.0983 20.0399 17.8054 18.5445 17.8054 16.9721C17.8054 15.3997 18.0983 13.9043 18.6841 12.4861C19.3008 11.037 20.1487 9.77285 21.2278 8.69373C22.2761 7.61461 23.5093 6.78215 24.9276 6.19635C26.3767 5.61054 27.8875 5.31764 29.4599 5.31764C31.0323 5.31764 32.5277 5.61054 33.9459 6.19635C35.395 6.78215 36.6437 7.61461 37.692 8.69373C39.9736 11.037 41.1144 13.7502 41.1144 16.8334C41.1144 17.2076 41.0933 17.5959 41.0513 17.9982C41.0156 18.3397 40.7216 18.5908 40.3782 18.5908H22.9389ZM29.4599 9.10996C28.1958 9.10996 27.0088 9.38745 25.8988 9.94242C24.7889 10.4974 23.8947 11.2374 23.2164 12.1623C22.7177 12.8511 22.411 13.5765 22.2964 14.3385C22.2395 14.7174 22.5558 15.0297 22.9389 15.0297H35.9808C36.364 15.0297 36.6805 14.7172 36.6209 14.3387C36.501 13.5767 36.1797 12.8512 35.6571 12.1623C35.0096 11.2374 34.1309 10.4974 33.021 9.94242C31.911 9.38745 30.724 9.10996 29.4599 9.10996Z" fill="var(--fill-0, #27272A)"/>
<path d="M12.6121 12.2548C12.273 12.2548 11.9896 12.0072 11.8878 11.6838C11.7785 11.3369 11.6237 11.0031 11.4232 10.6824C10.8374 9.66494 9.68122 9.15621 7.95463 9.15621C7.02968 9.15621 6.32054 9.26412 5.82723 9.47994C5.17976 9.7266 4.68645 10.0812 4.3473 10.5436C4.03898 11.0061 3.88482 11.5149 3.88482 12.0698C3.88482 12.7481 4.13148 13.3648 4.62479 13.9197C5.14893 14.5055 5.99681 14.8139 7.16842 14.8447C9.23416 14.9372 10.8991 15.1838 12.1632 15.5847C13.4581 15.9855 14.4448 16.6792 15.1231 17.6658C15.8322 18.6524 16.1868 20.0399 16.1868 21.8281C16.1868 23.6472 15.493 25.2196 14.1056 26.5454C13.4273 27.1929 12.6257 27.717 11.7007 28.1178C10.8066 28.5186 9.86621 28.7191 8.87959 28.7191H8.18587C5.71932 28.7191 3.73066 28.0099 2.2199 26.5917C1.14895 25.601 0.426742 24.2617 0.0532847 22.5735C-0.0382822 22.1596 0.288534 21.7819 0.712447 21.7819H3.45948C3.78807 21.7819 4.06481 22.0152 4.17314 22.3254C4.34656 22.822 4.60502 23.242 4.94852 23.5855C5.65766 24.2638 6.64428 24.603 7.90839 24.603C8.24754 24.603 8.49419 24.5876 8.64835 24.5568C9.72747 24.4951 10.5753 24.2022 11.192 23.678C11.8086 23.1231 12.1169 22.4448 12.1169 21.6431C12.1169 20.5332 11.7778 19.8086 11.0995 19.4695C10.4212 19.1303 9.11083 18.9608 7.16842 18.9608C4.7327 18.9608 2.86737 18.19 1.57243 16.6484C0.524142 15.4768 0 13.9968 0 12.2086C0 11.8078 0.015416 11.4994 0.0462478 11.2836C0.292903 9.27954 1.10995 7.75336 2.49738 6.70507C3.91565 5.62596 5.78098 5.0864 8.09338 5.0864C9.78913 5.0864 11.2691 5.45638 12.5332 6.19635C13.4273 6.75132 14.1981 7.52212 14.8456 8.50874C15.4515 9.47818 15.849 10.6858 16.0382 12.1315C16.0442 12.1776 16.0202 12.2225 15.9787 12.2432C15.9634 12.2509 15.9467 12.2548 15.9296 12.2548H12.6121Z" fill="var(--fill-0, #27272A)"/>
</g>
</svg>
