<svg preserveAspectRatio="none" width="100%" height="100%" overflow="visible" style="display: block;" viewBox="0 0 160 40.1227" fill="none" xmlns="http://www.w3.org/2000/svg">
<g id="Vector">
<path d="M144.009 38.753C141.877 38.753 139.85 38.3349 137.926 37.4988C136.003 36.6627 134.31 35.513 132.847 34.0498C131.384 32.5866 130.234 30.8934 129.398 28.9704C128.562 27.0473 128.144 25.0197 128.144 22.8876C128.144 20.7137 128.562 18.6443 129.398 16.6794C130.234 14.7145 131.384 13.0005 132.847 11.5373C134.31 10.0741 136.003 8.9453 137.926 8.15099C139.85 7.31487 141.877 6.89681 144.009 6.89681C146.183 6.89681 148.253 7.31487 150.217 8.15099C152.182 8.9453 153.896 10.0741 155.36 11.5373C156.823 13.0005 157.951 14.7145 158.746 16.6794C159.582 18.6443 160 20.7137 160 22.8876C160 25.0197 159.582 27.0473 158.746 28.9704C157.951 30.8934 156.823 32.5866 155.36 34.0498C153.896 35.513 152.182 36.6627 150.217 37.4988C148.253 38.3349 146.183 38.753 144.009 38.753ZM144.009 12.4779C141.208 12.4779 138.804 13.4813 136.798 15.4879C135.836 16.4495 135.084 17.5782 134.54 18.8742C133.997 20.1702 133.725 21.508 133.725 22.8876C133.725 24.2672 133.997 25.5841 134.54 26.8383C135.084 28.0924 135.836 29.2003 136.798 30.1618C137.759 31.1234 138.846 31.8759 140.059 32.4194C141.313 32.9628 142.63 33.2346 144.009 33.2346C145.389 33.2346 146.727 32.9628 148.023 32.4194C149.319 31.8759 150.426 31.1234 151.346 30.1618C152.266 29.2003 152.997 28.0924 153.541 26.8383C154.084 25.5841 154.356 24.2672 154.356 22.8876C154.356 21.508 154.084 20.1702 153.541 18.8742C152.997 17.5782 152.266 16.4495 151.346 15.4879C150.426 14.5264 149.319 13.7948 148.023 13.2931C146.768 12.7496 145.431 12.4779 144.009 12.4779Z" fill="#27272A"/>
<path d="M116.909 39.4767C116.398 39.3865 116.056 38.8986 116.146 38.387L116.265 37.7139C116.417 36.8498 115.365 36.2148 114.606 36.656C113.59 37.2474 112.51 37.7132 111.366 38.0535C109.436 38.6471 107.503 38.7733 105.568 38.4321C103.386 38.0473 101.417 37.2969 99.6611 36.1807C97.9124 35.0233 96.4688 33.5802 95.3304 31.8512C94.1507 30.115 93.3162 28.2273 92.8267 26.1883C92.3856 24.1153 92.3539 22.0084 92.7314 19.8675C93.1089 17.7266 93.8557 15.7782 94.9719 14.0223C96.1365 12.2324 97.57 10.7235 99.2723 9.49541C100.933 8.26009 102.78 7.41827 104.812 6.96996C106.851 6.48048 108.961 6.42812 111.143 6.81288C113.284 7.19037 115.143 7.96386 116.72 9.13335C117.581 9.75946 118.343 10.4644 119.008 11.2482C119.586 11.9299 120.853 11.696 121.008 10.8157L122.778 0.777453C122.868 0.265847 123.356 -0.0757623 123.868 0.0144476L127.449 0.646027C127.961 0.736237 128.303 1.22411 128.212 1.73571L121.581 39.3453C121.491 39.8569 121.003 40.1985 120.491 40.1083L116.909 39.4767ZM110.152 12.4327C108.794 12.1931 107.45 12.2321 106.12 12.5495C104.798 12.8258 103.601 13.3575 102.528 14.1447C101.455 14.932 100.539 15.9165 99.7783 17.0984C99.0253 18.2392 98.529 19.4889 98.2894 20.8475C97.803 23.606 98.3665 26.1887 99.9797 28.5957C100.718 29.7023 101.658 30.6322 102.799 31.3852C103.94 32.1382 105.189 32.6345 106.548 32.874C107.907 33.1136 109.251 33.0747 110.58 32.7572C111.951 32.447 113.173 31.8983 114.245 31.1111C116.585 29.401 117.997 27.1668 118.484 24.4083C118.723 23.0497 118.684 21.7056 118.367 20.3761C118.057 19.0055 117.532 17.7668 116.793 16.6602C116.055 15.5535 115.091 14.6407 113.902 13.9216C112.761 13.1685 111.511 12.6723 110.152 12.4327Z" fill="#27272A"/>
<path d="M64.9038 25.2078C64.3843 25.2078 63.9556 25.6331 64.0631 26.1414C64.2141 26.8552 64.5361 27.5892 65.0292 28.3433C65.7817 29.4302 66.6387 30.35 67.6003 31.1025C69.3561 32.4821 71.4046 33.1719 73.7457 33.1719C77.2008 33.1719 80.0611 31.6217 82.3266 28.5214C82.6239 28.1146 83.1806 27.9814 83.6142 28.2382L86.7789 30.112C87.2322 30.3804 87.3784 30.9702 87.0818 31.4054C85.5511 33.6511 83.7187 35.4105 81.5844 36.6836C79.2014 38.105 76.5885 38.8157 73.7457 38.8157C71.6136 38.8157 69.586 38.4185 67.663 37.6242C65.7399 36.7881 64.0468 35.6384 62.5835 34.1752C61.1203 32.712 59.9707 31.0189 59.1345 29.0958C58.3402 27.1727 57.9431 25.1451 57.9431 23.013C57.9431 20.8809 58.3402 18.8533 59.1345 16.9302C59.9707 14.9654 61.1203 13.2513 62.5835 11.7881C64.0049 10.3249 65.6772 9.19614 67.6003 8.40182C69.5651 7.60751 71.6136 7.21035 73.7457 7.21035C75.8778 7.21035 77.9054 7.60751 79.8285 8.40182C81.7934 9.19614 83.4865 10.3249 84.9079 11.7881C88.0016 14.9654 89.5484 18.6443 89.5484 22.8249C89.5484 23.3324 89.5199 23.8588 89.4629 24.4043C89.4144 24.8674 89.0158 25.2078 88.5502 25.2078H64.9038ZM73.7457 12.3525C72.0317 12.3525 70.4222 12.7287 68.9171 13.4813C67.4121 14.2338 66.1998 15.2371 65.28 16.4913C64.6037 17.4252 64.1879 18.4088 64.0326 19.442C63.9554 19.9557 64.3843 20.3792 64.9038 20.3792H82.5877C83.1072 20.3792 83.5364 19.9555 83.4556 19.4424C83.293 18.409 82.8573 17.4253 82.1487 16.4913C81.2708 15.2371 80.0794 14.2338 78.5743 13.4813C77.0693 12.7287 75.4598 12.3525 73.7457 12.3525Z" fill="#27272A"/>
<path d="M31.1037 25.2078C30.5842 25.2078 30.1555 25.6331 30.263 26.1414C30.414 26.8552 30.736 27.5892 31.2291 28.3433C31.9816 29.4302 32.8386 30.35 33.8001 31.1025C35.556 32.4821 37.6045 33.1719 39.9456 33.1719C43.4007 33.1719 46.261 31.6217 48.5265 28.5214C48.8238 28.1146 49.3804 27.9814 49.8141 28.2382L52.9788 30.112C53.4321 30.3804 53.5783 30.9702 53.2817 31.4054C51.751 33.6511 49.9186 35.4105 47.7843 36.6836C45.4013 38.105 42.7884 38.8157 39.9456 38.8157C37.8135 38.8157 35.7859 38.4185 33.8629 37.6242C31.9398 36.7881 30.2466 35.6384 28.7834 34.1752C27.3202 32.712 26.1706 31.0189 25.3344 29.0958C24.5401 27.1727 24.143 25.1451 24.143 23.013C24.143 20.8809 24.5401 18.8533 25.3344 16.9302C26.1706 14.9654 27.3202 13.2513 28.7834 11.7881C30.2048 10.3249 31.8771 9.19614 33.8001 8.40182C35.765 7.60751 37.8135 7.21035 39.9456 7.21035C42.0777 7.21035 44.1053 7.60751 46.0284 8.40182C47.9933 9.19614 49.6864 10.3249 51.1078 11.7881C54.2015 14.9654 55.7483 18.6443 55.7483 22.8249C55.7483 23.3324 55.7198 23.8588 55.6627 24.4043C55.6143 24.8674 55.2157 25.2078 54.7501 25.2078H31.1037ZM39.9456 12.3525C38.2316 12.3525 36.622 12.7287 35.117 13.4813C33.612 14.2338 32.3996 15.2371 31.4799 16.4913C30.8036 17.4252 30.3878 18.4088 30.2325 19.442C30.1553 19.9557 30.5842 20.3792 31.1037 20.3792H48.7876C49.3071 20.3792 49.7363 19.9555 49.6555 19.4424C49.4929 18.409 49.0572 17.4253 48.3486 16.4913C47.4707 15.2371 46.2792 14.2338 44.7742 13.4813C43.2692 12.7287 41.6597 12.3525 39.9456 12.3525Z" fill="#27272A"/>
<path d="M17.1012 16.6167C16.6414 16.6167 16.2571 16.281 16.119 15.8424C15.9709 15.3721 15.7609 14.9195 15.4891 14.4846C14.6948 13.105 13.1271 12.4152 10.7859 12.4152C9.53176 12.4152 8.57023 12.5615 7.90133 12.8542C7.02341 13.1886 6.35451 13.6694 5.89464 14.2965C5.47658 14.9236 5.26755 15.6134 5.26755 16.3659C5.26755 17.2856 5.602 18.1217 6.2709 18.8742C6.9816 19.6685 8.13126 20.0866 9.71989 20.1284C12.5209 20.2538 14.7784 20.5883 16.4925 21.1317C18.2483 21.6752 19.5861 22.6159 20.5058 23.9537C21.4674 25.2914 21.9481 27.1727 21.9481 29.5975C21.9481 32.064 21.0075 34.1961 19.1262 35.9938C18.2065 36.8717 17.1196 37.5824 15.8654 38.1259C14.653 38.6694 13.3779 38.9411 12.0401 38.9411H11.0995C7.75501 38.9411 5.05852 37.9796 3.01003 36.0565C1.55789 34.7133 0.578634 32.8972 0.0722504 30.6082C-0.051908 30.0469 0.391232 29.5348 0.966029 29.5348H4.69081C5.13637 29.5348 5.51161 29.8511 5.6585 30.2717C5.89364 30.9451 6.24409 31.5146 6.70986 31.9804C7.6714 32.9001 9.00919 33.36 10.7232 33.36C11.1831 33.36 11.5175 33.3391 11.7266 33.2973C13.1898 33.2137 14.3395 32.8165 15.1756 32.1058C16.0117 31.3533 16.4298 30.4336 16.4298 29.3466C16.4298 27.8416 15.9699 26.8592 15.0502 26.3993C14.1304 25.9394 12.3537 25.7095 9.71989 25.7095C6.41722 25.7095 3.88796 24.6644 2.13211 22.5741C0.710702 20.9854 0 18.9787 0 16.554C0 16.0105 0.020903 15.5925 0.0627089 15.2998C0.397157 12.5824 1.50502 10.513 3.38628 9.09162C5.30936 7.62841 7.83862 6.89681 10.9741 6.89681C13.2734 6.89681 15.2801 7.39848 16.9941 8.40183C18.2065 9.15434 19.2517 10.1995 20.1296 11.5373C20.9511 12.8518 21.4902 14.4892 21.7466 16.4495C21.7548 16.512 21.7223 16.5728 21.666 16.601C21.6453 16.6113 21.6226 16.6167 21.5995 16.6167H17.1012Z" fill="#27272A"/>
</g>
</svg>
