<svg preserveAspectRatio="none" width="100%" height="100%" overflow="visible" style="display: block;" viewBox="0 0 8.0001 7.49922" fill="none" xmlns="http://www.w3.org/2000/svg">
<path id="Union" d="M3.54614 0.322895C3.68892 -0.107632 4.31057 -0.107632 4.45336 0.322895L5.07055 2.18325C5.13441 2.37578 5.31801 2.50649 5.52465 2.50649H7.52172C7.98371 2.50649 8.17652 3.08605 7.80297 3.35219L6.18676 4.50258C6.01958 4.62158 5.94908 4.83251 6.01293 5.02504L6.63012 6.8854C6.77291 7.31592 6.27055 7.67394 5.89672 7.40786L4.28051 6.25844C4.11333 6.13945 3.88714 6.13945 3.71996 6.25844L2.10375 7.40786C1.72993 7.67394 1.22659 7.31592 1.36938 6.8854L1.98657 5.02504C2.05039 4.83259 1.98073 4.62161 1.81371 4.50258L0.197503 3.35219C-0.176265 3.08615 0.0158537 2.50666 0.477777 2.50649H2.47582C2.68234 2.50635 2.86513 2.37568 2.92895 2.18325L3.54614 0.322895Z" fill="var(--fill-0, #8B5CF6)"/>
</svg>
